<svg xmlns="http://www.w3.org/2000/svg" data-name="Layer 1" viewBox="0 0 100 125" x="0px" y="0px">
    <title>Slide Left and Right_3</title>
    <path
        d="M78.928,17.654l-4.916-4.915A1.565,1.565,0,0,0,71.8,14.952L74.043,17.2H61.1a1.566,1.566,0,0,0,0,3.131H74.044L71.8,22.571a1.566,1.566,0,0,0,2.214,2.214l4.916-4.916a1.567,1.567,0,0,0,0-2.215Z" />
    <path
        d="M24.894,12.739a1.563,1.563,0,0,0-2.213,0l-4.916,4.915a1.567,1.567,0,0,0,0,2.215l4.916,4.916a1.565,1.565,0,1,0,2.213-2.214l-2.245-2.244H35.59a1.566,1.566,0,0,0,0-3.131H22.65l2.244-2.244A1.563,1.563,0,0,0,24.894,12.739Z" />
    <path
        d="M82.664,64.345c0-.046.031-.093.031-.14v-21.1a6.316,6.316,0,0,0-1.816-4.4,6.256,6.256,0,0,0-7.622-.877,6.248,6.248,0,0,0-6.027-4.743,6.184,6.184,0,0,0-3.271.94,6.19,6.19,0,0,0-6-4.7,6.063,6.063,0,0,0-3.084.829V16.59A6.626,6.626,0,0,0,48.291,10a6.6,6.6,0,0,0-6.606,6.59V50.571c-2.52-3.021-6.511-6.449-11.645-6.1A4.986,4.986,0,0,0,26.017,47.1a4.88,4.88,0,0,0,.063,4.79,25.521,25.521,0,0,0,2.614,3.6,51.058,51.058,0,0,1,7.294,10.581,41.768,41.768,0,0,0,6.073,9.063,5.638,5.638,0,0,0-3.506,5.212v4.023A5.642,5.642,0,0,0,44.19,90H77.06A5.631,5.631,0,0,0,82.7,84.365V80.342a5.644,5.644,0,0,0-4.524-5.525,20.772,20.772,0,0,0,4.493-10.362A.269.269,0,0,0,82.664,64.345Z" />
</svg>