<svg xmlns="http://www.w3.org/2000/svg" xmlns:xlink="http://www.w3.org/1999/xlink" viewBox="0,0,256,256" width="32px" height="32px" fill-rule="nonzero"><g fill="#ffffff" fill-rule="nonzero" stroke="none" stroke-width="1" stroke-linecap="butt" stroke-linejoin="miter" stroke-miterlimit="10" stroke-dasharray="" stroke-dashoffset="0" font-family="none" font-weight="none" font-size="none" text-anchor="none" style="mix-blend-mode: normal"><g transform="scale(8,8)"><path d="M23.06836,5.00586c-0.178,0 -1.44255,0.24941 -11.81055,2.19141c-0.081,0 -0.46864,0.1013 -0.68164,0.2793c-0.209,0.168 -0.32033,0.39225 -0.36133,0.65625c-0.173,0.691 0.37823,13.14842 -0.13477,13.73242c-0.224,0.249 -0.61883,0.32095 -0.92383,0.37695c-1.824,0.32 -3.03834,0.48755 -3.90234,1.31055c-1.489,1.453 -0.71748,3.98839 1.47852,4.40039c0.823,0.152 2.36866,-0.05434 3.22266,-0.52734c0.752,-0.387 1.32216,-1.08281 1.53516,-2.00781c0.183,-0.793 0.12695,-0.24483 0.12695,-12.17383c0,-0.585 0.16364,-0.73761 0.68164,-0.84961c0,0 9.0205,-1.68681 9.4375,-1.75781c0.584,-0.102 0.86328,0.056 0.86328,0.625c0,8.087 0.10234,7.92892 -0.22266,8.29492c-0.224,0.249 -0.48992,0.319 -0.79492,0.375c-1.825,0.32 -2.92702,0.37622 -3.79102,1.19922c-1.093,1.067 -1.07828,2.75925 0.13672,3.78125c0.905,0.69 1.92102,0.85986 3.16602,0.63086c1.418,-0.265 2.47578,-1.04841 2.80078,-2.44141c0.147,-0.635 0.09975,0.30483 0.09375,-17.20117c0,-0.59 -0.33592,-0.93553 -0.91992,-0.89453z"></path></g></g></svg>