<?xml version="1.0" encoding="UTF-8" standalone="no" ?>
<!DOCTYPE svg PUBLIC "-//W3C//DTD SVG 1.1//EN" "http://www.w3.org/Graphics/SVG/1.1/DTD/svg11.dtd">
<svg xmlns="http://www.w3.org/2000/svg" xmlns:xlink="http://www.w3.org/1999/xlink" version="1.1" width="1080" height="1080" viewBox="0 0 1080 1080" xml:space="preserve">
<desc>Created with Fabric.js 5.2.4</desc>
<defs>
</defs>
<g transform="matrix(1 0 0 1 540 540)" id="0a34b6a0-b3ec-4344-a0f4-ad6b2c8d259f"  >
<rect style="stroke: none; stroke-width: 1; stroke-dasharray: none; stroke-linecap: butt; stroke-dashoffset: 0; stroke-linejoin: miter; stroke-miterlimit: 4; fill: rgb(255,255,255); fill-rule: nonzero; opacity: 1; visibility: hidden;" vector-effect="non-scaling-stroke"  x="-540" y="-540" rx="0" ry="0" width="1080" height="1080" />
</g>
<g transform="matrix(1 0 0 1 540 540)" id="e223c46d-3ceb-472e-9bf6-697659ced04c"  >
</g>
<g transform="matrix(1 0 0 1 540 540)"  >
<g style=""   >
		<g transform="matrix(1 0 0 1 0 0)" id="22"  >
<rect style="stroke: none; stroke-width: 1; stroke-dasharray: none; stroke-linecap: butt; stroke-dashoffset: 0; stroke-linejoin: miter; stroke-miterlimit: 4; fill: rgb(255,255,255); fill-rule: nonzero; opacity: 1; visibility: hidden;" vector-effect="non-scaling-stroke"  x="-540" y="-540" rx="0" ry="0" width="1080" height="1080" />
</g>
		<g transform="matrix(1.33 0 0 1.33 0 0)"  >
<path style="stroke: none; stroke-width: 1; stroke-dasharray: none; stroke-linecap: butt; stroke-dashoffset: 0; stroke-linejoin: miter; stroke-miterlimit: 4; fill: rgb(255,255,255); fill-rule: nonzero; opacity: 1;" vector-effect="non-scaling-stroke"  transform=" translate(-349.86, -280)" d="M 516.88 240.24 L 357.84000000000003 414.96000000000004 C 353.91810000000004 419.44050000000004 346.641 419.44050000000004 342.16 414.96000000000004 L 183.12000000000003 240.24000000000004 C 176.95980000000003 233.52120000000005 181.99890000000002 222.88100000000003 190.95980000000003 222.88100000000003 L 268.7998 222.88100000000003 L 268.7998 38.08100000000002 C 268.7998 32.47940000000002 273.2803 28.003000000000018 278.8778 28.003000000000018 L 419.9978 28.003000000000018 C 425.5994 28.003000000000018 430.07579999999996 32.48350000000002 430.07579999999996 38.08100000000002 L 430.07579999999996 222.88100000000003 L 507.9158 222.88100000000003 C 517.9978 222.88100000000003 522.4778 233.52200000000002 516.8767 240.24000000000004 z M 519.1222 523.6 L 519.1222 467.6 C 519.1222 463.1195 515.2003 459.20160000000004 510.72380000000004 459.20160000000004 L 189.28380000000004 459.19769400000007 C 184.80330000000004 459.19769400000007 180.88540000000003 463.11959400000006 180.88540000000003 467.59609400000005 L 180.88540000000003 523.596094 C 180.88540000000003 528.076594 184.80730000000003 531.994494 189.28380000000004 531.994494 L 511.28380000000004 531.994494 C 515.7643 531.9984000000001 519.1236 528.638994 519.1236 523.599994 z" stroke-linecap="round" />
</g>
</g>
</g>
</svg>